<svg width="26" height="25" viewBox="0 0 26 25" fill="none" xmlns="http://www.w3.org/2000/svg">
<path fill-rule="evenodd" clip-rule="evenodd" d="M10 24C10.5523 24 11 23.5523 11 23C11 22.4477 10.5523 22 10 22C9.44772 22 9 22.4477 9 23C9 23.5523 9.44772 24 10 24Z" stroke="#B49AC9" stroke-width="2" stroke-linecap="round" stroke-linejoin="round"/>
<path fill-rule="evenodd" clip-rule="evenodd" d="M22 24C22.5523 24 23 23.5523 23 23C23 22.4477 22.5523 22 22 22C21.4477 22 21 22.4477 21 23C21 23.5523 21.4477 24 22 24Z" stroke="#B49AC9" stroke-width="2" stroke-linecap="round" stroke-linejoin="round"/>
<path d="M1 1H5.36364L8.28727 15.2823C8.49317 16.2959 9.41242 17.0194 10.4691 16.9996H21.0727C22.1294 17.0194 23.0487 16.2959 23.2545 15.2823L25 6.3332H6.45455" stroke="#B49AC9" stroke-width="2" stroke-linecap="round" stroke-linejoin="round"/>
</svg>
