<svg width="15" height="15" viewBox="0 0 15 15" fill="none" xmlns="http://www.w3.org/2000/svg">
<path d="M14.25 6.675V1.575C14.25 0.45 13.77 0 12.5775 0H9.5475C8.355 0 7.875 0.45 7.875 1.575V6.675C7.875 7.8 8.355 8.25 9.5475 8.25H12.5775C13.77 8.25 14.25 7.8 14.25 6.675Z" fill="white"/>
<path d="M6.375 8.325V13.425C6.375 14.55 5.895 15 4.7025 15H1.6725C0.48 15 0 14.55 0 13.425V8.325C0 7.2 0.48 6.75 1.6725 6.75H4.7025C5.895 6.75 6.375 7.2 6.375 8.325Z" fill="white"/>
<path d="M14.25 13.425V11.325C14.25 10.2 13.77 9.75 12.5775 9.75H9.5475C8.355 9.75 7.875 10.2 7.875 11.325V13.425C7.875 14.55 8.355 15 9.5475 15H12.5775C13.77 15 14.25 14.55 14.25 13.425Z" fill="white"/>
<path d="M6.375 3.675V1.575C6.375 0.45 5.895 0 4.7025 0H1.6725C0.48 0 0 0.45 0 1.575V3.675C0 4.8 0.48 5.25 1.6725 5.25H4.7025C5.895 5.25 6.375 4.8 6.375 3.675Z" fill="white"/>
</svg>
